# xmcd
#
# Track frame offsets:
#	150
#	28695
#	58279
#	76242
#	102745
#	133829
#	179558
#	192209
#	207130
#	238573
#	269173
#
# Disc length: 3827 seconds
#
# Revision: 1
# Processed by: cddbd v1.5.1PL0 Copyright (c) Steve Scherf et al.
# Submitted via: audiograbber 1.83.01
#
DISCID=a80ef10b
DTITLE=Follysend - Catch The Fire 2001 - Live
DYEAR=2001
DGENRE=Worship
TTITLE0=I Will Rise
TTITLE1=Yes Lord
TTITLE2=Heavenly Warfare
TTITLE3=Armed and Dangerous
TTITLE4=No Other Friend
TTITLE5=Psalm 42
TTITLE6=Hound Dog
TTITLE7=Wise Men Say
TTITLE8=Warrior
TTITLE9=Gabriel's Lips
TTITLE10=Lead Us to the Lost
EXTD=Recorded Live at Follysend church in Croydon (c) Follysend.org
EXTT0=
EXTT1=
EXTT2=
EXTT3=
EXTT4=
EXTT5=
EXTT6=
EXTT7=
EXTT8=
EXTT9=
EXTT10=
PLAYORDER=
